<svg xmlns="http://www.w3.org/2000/svg" width="430" height="430" style="width:100%;height:100%;transform:translate3d(0,0,0);content-visibility:visible" viewBox="0 0 430 430"><defs><clipPath id="f"><path d="M0 0h430v430H0z"/></clipPath><clipPath id="o"><path d="M0 0h430v430H0z"/></clipPath><clipPath id="m"><path d="M0 0h430v430H0z"/></clipPath><clipPath id="k"><path d="M0 0h430v430H0z"/></clipPath><clipPath id="i"><path d="M0 0h430v430H0z"/></clipPath><clipPath id="g"><path d="M0 0h430v430H0z"/></clipPath><mask id="p" mask-type="alpha"><use xmlns:ns1="http://www.w3.org/1999/xlink" ns1:href="#a"/></mask><mask id="n" mask-type="alpha"><use xmlns:ns2="http://www.w3.org/1999/xlink" ns2:href="#b"/></mask><mask id="l" mask-type="alpha"><use xmlns:ns3="http://www.w3.org/1999/xlink" ns3:href="#c"/></mask><mask id="j" mask-type="alpha"><use xmlns:ns4="http://www.w3.org/1999/xlink" ns4:href="#d"/></mask><mask id="h" mask-type="alpha"><use xmlns:ns5="http://www.w3.org/1999/xlink" ns5:href="#e"/></mask><g id="a" style="display:none"><path fill-opacity="0" stroke-linecap="round" stroke-linejoin="round" class="secondary"/><path/></g><g id="b" style="display:block"><path fill-opacity="0" stroke="#F24C00" stroke-linecap="round" stroke-linejoin="round" stroke-width="4" d="M191 361v49l-26-16-26 16v-49" class="secondary"/><path fill="#F24C00" d="M191 361v49l-26-16-26 16v-49"/></g><g id="c" style="display:none"><path fill-opacity="0" stroke-linecap="round" stroke-linejoin="round" class="tertiary"/><path class="tertiary"/></g><g id="d" style="display:none"><path fill-opacity="0" stroke-linecap="round" stroke-linejoin="round" class="tertiary"/><path class="tertiary"/></g><g id="e" style="display:none"><path fill-opacity="0" stroke-linecap="round" stroke-linejoin="round" class="tertiary"/><path class="tertiary"/></g></defs><g clip-path="url(#f)"><g clip-path="url(#g)" style="display:none"><g style="display:none"><path fill="none" class="tertiary"/><path class="tertiary"/></g><g mask="url(#h)" style="mix-blend-mode:multiply;display:none"><path class="tertiary"/></g><g style="display:none"><path fill="none" class="secondary"/><path class="secondary"/></g><g style="display:none"><path fill="none" class="secondary"/><path class="secondary"/></g><path class="secondary" style="mix-blend-mode:multiply;display:none"/><g style="display:none"><path fill="none" class="secondary"/><path class="secondary"/></g><path fill="none" class="senary" style="display:none"/><path class="secondary" style="mix-blend-mode:multiply;display:none"/><g style="display:none"><path fill="none" class="secondary"/><path class="secondary"/></g><path class="secondary" style="mix-blend-mode:multiply;display:none"/><path class="secondary" style="mix-blend-mode:multiply;display:none"/><g style="display:none"><path fill="none" class="secondary"/><path class="secondary"/></g><path class="secondary" style="mix-blend-mode:multiply;display:none"/><path fill="none" class="primary" style="display:none"/><path fill="none" class="primary" style="display:none"/><path fill="none" class="primary" style="display:none"/><path fill="none" class="primary" style="display:none"/><path fill="none" class="primary" style="display:none"/><path fill="none" class="primary" style="display:none"/><path fill="none" class="primary" style="display:none"/><path fill="none" class="primary" style="display:none"/><path fill="none" class="primary" style="display:none"/><path fill="none" class="primary" style="display:none"/><path fill="none" class="primary" style="display:none"/><path fill="none" class="primary" style="display:none"/></g><g clip-path="url(#i)" style="display:none"><g style="display:none"><path fill="none" class="tertiary"/><path class="tertiary"/></g><g mask="url(#j)" style="mix-blend-mode:multiply;display:none"><path class="tertiary"/></g><g style="display:none"><path fill="none" class="secondary"/><path class="secondary"/></g><g style="display:none"><path fill="none" class="secondary"/><path class="secondary"/></g><path class="secondary" style="mix-blend-mode:multiply;display:none"/><g style="display:none"><path fill="none" class="secondary"/><path class="secondary"/></g><path class="secondary" style="mix-blend-mode:multiply;display:none"/><path class="secondary" style="mix-blend-mode:multiply;display:none"/><g style="display:none"><path fill="none" class="secondary"/><path class="secondary"/></g><path class="secondary" style="mix-blend-mode:multiply;display:none"/><path class="secondary" style="mix-blend-mode:multiply;display:none"/><g style="display:none"><path fill="none" class="secondary"/><path class="secondary"/></g><path class="secondary" style="mix-blend-mode:multiply;display:none"/><path class="secondary" style="mix-blend-mode:multiply;display:none"/><path fill="none" class="primary" style="display:none"/><path fill="none" class="primary" style="display:none"/><path fill="none" class="primary" style="display:none"/><path fill="none" class="primary" style="display:none"/><path fill="none" class="primary" style="display:none"/><path fill="none" class="primary" style="display:none"/><path fill="none" class="primary" style="display:none"/><path fill="none" class="primary" style="display:none"/><path fill="none" class="primary" style="display:none"/><path fill="none" class="primary" style="display:none"/><path fill="none" class="primary" style="display:none"/><path fill="none" class="primary" style="display:none"/><path fill="none" class="primary" style="display:none"/><path fill="none" class="primary" style="display:none"/><path fill="none" class="primary" style="display:none"/></g><g clip-path="url(#k)" style="display:none"><g style="display:none"><path fill="none" class="tertiary"/><path class="tertiary"/></g><g mask="url(#l)" style="mix-blend-mode:multiply;display:none"><path class="tertiary"/></g><g style="display:none"><path fill="none" class="secondary"/><path class="secondary"/></g><g style="display:none"><path fill="none" class="secondary"/><path class="secondary"/></g><g style="display:none"><path fill="none" class="quaternary"/><path class="quaternary"/></g><g style="display:none"><path fill="none" class="secondary"/><path class="secondary"/><g style="mix-blend-mode:multiply"><path fill="none" class="secondary"/><path class="secondary"/></g><path class="secondary"/><path class="secondary" style="mix-blend-mode:multiply"/><path class="secondary"/></g><g style="display:none"><path class="secondary"/><path class="secondary" style="mix-blend-mode:multiply"/><path class="secondary"/></g><g fill="none" style="mix-blend-mode:multiply;display:none"><path class="secondary"/><path class="secondary"/></g><g style="display:none"><g fill="none" style="mix-blend-mode:multiply"><path class="secondary"/><path class="secondary" style="mix-blend-mode:multiply"/></g></g><g style="display:none"><path fill="none" class="secondary"/><path class="secondary"/></g><path class="secondary" style="mix-blend-mode:multiply;display:none"/><g style="display:none"><path fill="none" class="quaternary"/><path class="quaternary"/></g><g style="display:none"><path fill="none" class="secondary"/><path class="secondary"/></g><path class="secondary" style="mix-blend-mode:multiply;display:none"/><path class="quinary" style="display:none"/><path fill="none" class="primary" style="display:none"/><path fill="none" class="primary" style="display:none"/><path fill="none" class="primary" style="display:none"/><path fill="none" class="primary" style="display:none"/><path fill="none" class="primary" style="display:none"/><path fill="none" class="primary" style="display:none"/><path fill="none" class="primary" style="display:none"/><g fill="none" style="display:none"><path class="primary"/><path class="primary"/></g></g><g clip-path="url(#m)" style="display:block"><g style="display:block"><path fill="none" stroke="#D4FCF8" stroke-linecap="round" stroke-linejoin="round" stroke-width="4" d="M191 361v49l-26-16-26 16v-49" class="tertiary"/><path fill="#D4FCF8" d="M191 361v49l-26-16-26 16v-49" class="tertiary"/></g><g opacity=".5" style="mix-blend-mode:multiply;display:block"><g mask="url(#n)" opacity="1"><path fill="#D4FCF8" d="M165.412 347.223h-35.75v74.5l35.75 1z" class="tertiary"/><path fill="none" d="M165.412 347.223h-35.75v74.5l35.75 1z" class="tertiary"/></g></g><g style="display:block"><path fill="none" stroke="#007E73" stroke-linecap="round" stroke-linejoin="round" stroke-width="4" d="M337.46 87.228V361H121.667c-7.951 0-15.066-3.139-20.297-8.37-5.126-5.126-8.37-12.241-8.37-20.192V58.666m244.46 28.667H121.667C105.869 87.333 93 74.464 93 58.666S105.869 30 121.667 30H337.46z" class="quaternary"/><path fill="#007E73" d="M337.46 87.228V361H121.667c-7.951 0-15.066-3.139-20.297-8.37-5.126-5.126-8.37-12.241-8.37-20.192V58.666m244.46 28.667H121.667C105.869 87.333 93 74.464 93 58.666S105.869 30 121.667 30H337.46z" class="quaternary"/></g><g opacity=".5" style="mix-blend-mode:multiply;display:block"><path fill="#007E73" d="M90.937 54.495v277.07c0 8.773 3.579 16.623 9.235 22.279 5.772 5.772 13.621 9.235 22.394 9.235h22.067c-8.773 0-16.622-3.463-22.394-9.235-5.656-5.656-9.235-13.506-9.235-22.279V54.495z" class="quaternary" opacity="1"/></g><path fill="#D4FCF8" d="M70-25H-70v50H70z" class="quinary" style="display:block" transform="translate(215 165)"/><g style="display:block"><path fill="none" stroke="#D4FCF8" stroke-linecap="round" stroke-linejoin="round" stroke-width="4" d="M337.46 87.333H121.667C105.869 87.333 93 74.464 93 58.666S105.869 30 121.667 30H337.46z" class="secondary"/><path fill="#D4FCF8" d="M337.46 87.333H121.667C105.869 87.333 93 74.464 93 58.666S105.869 30 121.667 30H337.46z" class="secondary"/><g opacity=".5" style="mix-blend-mode:multiply"><path fill="none" stroke="#D4FCF8" stroke-linecap="round" stroke-linejoin="round" stroke-width="4" d="M337.46 87.333H121.667C105.869 87.333 93 74.464 93 58.666S105.869 30 121.667 30H337.46z" class="secondary"/><path fill="#D4FCF8" d="M337.46 87.333H121.667C105.869 87.333 93 74.464 93 58.666S105.869 30 121.667 30H337.46z" class="secondary"/></g><g fill="#D4FCF8"><path d="M340.04 77.446H122.026c-10.269 0-18.633-8.365-18.633-18.634s8.364-18.633 18.633-18.633h218.016z" class="secondary"/><path fill-opacity=".5" d="M122.23-108.167h-335.409c-15.798 0-28.666-12.869-28.666-28.667s12.868-28.666 28.666-28.666H122.23z" class="secondary" style="mix-blend-mode:multiply" transform="matrix(.65 0 0 .65 260.591 147.754)"/></g><path fill="#D4FCF8" d="M340.057 77.446H145.52c-9.163 0-16.626-8.365-16.626-18.634s7.463-18.633 16.626-18.633h194.537z" class="secondary"/></g><g opacity=".5" style="mix-blend-mode:multiply;display:block"><g fill="none" stroke="#D4FCF8" stroke-width="7" opacity="1"><path stroke-dasharray="81 272" stroke-linecap="round" d="M167 58.75h173" class="secondary"/><path d="M167 58.75h173" class="secondary"/></g></g><path fill="none" stroke="#121330" stroke-linecap="round" stroke-linejoin="round" stroke-width="7" d="M26-24.5v49L0 8.5l-26 16v-49" class="primary" style="display:block" transform="translate(165 385.5)"/><path fill="none" stroke="#121330" stroke-linecap="round" stroke-linejoin="round" stroke-width="7" d="M122.23-108.272V165.5H-93.563c-7.951 0-15.066-3.139-20.297-8.37-5.126-5.126-8.37-12.241-8.37-20.192v-273.772m244.46 28.667H-93.563c-15.798 0-28.667-12.869-28.667-28.667s12.869-28.666 28.667-28.666H122.23z" class="primary" style="display:block" transform="translate(215.23 195.5)"/><path fill="none" stroke="#121330" stroke-linecap="round" stroke-linejoin="round" stroke-width="7" d="M170.864 304.5h88.272M145 269.5h140m0-129.5H145v50h140z" class="primary" style="display:block"/></g><g clip-path="url(#o)" style="display:none"><g style="display:none"><path fill="none" class="tertiary"/><path class="tertiary"/></g><g mask="url(#p)" style="mix-blend-mode:multiply;display:none"><path class="tertiary"/><path fill="none" class="tertiary"/></g><g style="display:none"><path fill="none" class="quaternary"/><path class="quaternary"/></g><path class="quaternary" style="mix-blend-mode:multiply;display:none"/><g style="display:none"><path fill="none" class="secondary"/><path class="secondary"/><g style="mix-blend-mode:multiply"><path fill="none" class="secondary"/><path class="secondary"/></g><path class="secondary"/><path class="secondary" style="mix-blend-mode:multiply"/><path class="secondary"/></g><g fill="none" style="mix-blend-mode:multiply;display:none"><path class="secondary"/><path class="secondary"/></g><path class="quinary" style="display:none"/><path fill="none" class="primary" style="display:none"/><path fill="none" class="primary" style="display:none"/><g fill="none" style="display:none"><path class="primary"/><path class="primary"/></g></g></g></svg>